<?xml version="1.0" encoding="UTF-8"?>
<!DOCTYPE svg PUBLIC "-//W3C//DTD SVG 1.1//EN" "http://www.w3.org/Graphics/SVG/1.1/DTD/svg11.dtd">
<svg xmlns="http://www.w3.org/2000/svg" version="1.1" width="500px" height="500px" style="shape-rendering:geometricPrecision; text-rendering:geometricPrecision; image-rendering:optimizeQuality; fill-rule:evenodd; clip-rule:evenodd" xmlns:xlink="http://www.w3.org/1999/xlink">
<g><path style="opacity:0.961" fill="#9c161f" d="M 190.5,226.5 C 190.414,228.677 189.747,230.677 188.5,232.5C 184.663,236.298 181.996,240.298 180.5,244.5C 170.542,237.048 160.709,229.381 151,221.5C 150.173,217.459 150.34,213.459 151.5,209.5C 171.548,193.451 191.881,177.784 212.5,162.5C 213.665,170.813 213.832,179.147 213,187.5C 201.075,196.88 189.242,206.38 177.5,216C 181.903,219.519 186.237,223.019 190.5,226.5 Z"/></g>
<g><path style="opacity:0.93" fill="#c81922" d="M 311.5,181.5 C 311.082,182.222 310.416,182.722 309.5,183C 310.5,183.333 311.5,183.667 312.5,184C 310.998,184.583 309.665,185.416 308.5,186.5C 306.199,190.788 303.199,194.455 299.5,197.5C 294.614,194.794 290.114,191.461 286,187.5C 285.168,179.147 285.335,170.813 286.5,162.5C 295.16,168.505 303.493,174.838 311.5,181.5 Z"/></g>
<g><path style="opacity:0.986" fill="#b61821" d="M 266.5,185.5 C 264.103,188.543 261.436,191.543 258.5,194.5C 257.359,195.425 257.359,196.259 258.5,197C 252.235,203.437 246.902,210.604 242.5,218.5C 241.311,219.429 239.978,219.762 238.5,219.5C 243.68,194.778 249.18,170.111 255,145.5C 262.109,144.188 269.276,144.188 276.5,145.5C 273.276,158.982 269.943,172.315 266.5,185.5 Z"/></g>
<g><path style="opacity:0.936" fill="#dd1b24" d="M 311.5,181.5 C 323.767,190.427 335.767,199.761 347.5,209.5C 348.66,213.459 348.827,217.459 348,221.5C 327.93,238.073 307.43,254.073 286.5,269.5C 285.167,260.833 285.167,252.167 286.5,243.5C 298.023,234.143 309.69,224.976 321.5,216C 313.976,209.969 306.643,203.802 299.5,197.5C 303.199,194.455 306.199,190.788 308.5,186.5C 309.665,185.416 310.998,184.583 312.5,184C 311.5,183.667 310.5,183.333 309.5,183C 310.416,182.722 311.082,182.222 311.5,181.5 Z"/></g>
<g><path style="opacity:0.955" fill="#c41922" d="M 266.5,185.5 C 259.167,219.5 251.833,253.5 244.5,287.5C 237.5,287.5 230.5,287.5 223.5,287.5C 227.581,264.521 232.581,241.855 238.5,219.5C 239.978,219.762 241.311,219.429 242.5,218.5C 246.902,210.604 252.235,203.437 258.5,197C 257.359,196.259 257.359,195.425 258.5,194.5C 261.436,191.543 264.103,188.543 266.5,185.5 Z"/></g>
<g><path style="opacity:0.944" fill="#b11720" d="M 190.5,226.5 C 197.815,232.143 205.148,237.809 212.5,243.5C 213.833,252.167 213.833,260.833 212.5,269.5C 201.764,261.147 191.098,252.814 180.5,244.5C 181.996,240.298 184.663,236.298 188.5,232.5C 189.747,230.677 190.414,228.677 190.5,226.5 Z"/></g>
<g><path style="opacity:0.917" fill="#d80000" d="M 137.5,302.5 C 143.167,302.5 148.833,302.5 154.5,302.5C 154.5,317.167 154.5,331.833 154.5,346.5C 164.172,346.334 173.839,346.5 183.5,347C 184.444,349.719 184.777,352.552 184.5,355.5C 168.833,355.5 153.167,355.5 137.5,355.5C 137.5,337.833 137.5,320.167 137.5,302.5 Z"/></g>
<g><path style="opacity:0.884" fill="#d80000" d="M 204.5,302.5 C 212.5,302.5 220.5,302.5 228.5,302.5C 228.5,304.833 228.5,307.167 228.5,309.5C 235.5,307.833 238.167,310.5 236.5,317.5C 238.833,317.5 241.167,317.5 243.5,317.5C 243.5,330.167 243.5,342.833 243.5,355.5C 237.833,355.5 232.167,355.5 226.5,355.5C 226.5,350.833 226.5,346.167 226.5,341.5C 219.833,341.5 213.167,341.5 206.5,341.5C 206.5,346.167 206.5,350.833 206.5,355.5C 200.833,355.5 195.167,355.5 189.5,355.5C 189.5,342.833 189.5,330.167 189.5,317.5C 191.833,317.5 194.167,317.5 196.5,317.5C 196.5,314.833 196.5,312.167 196.5,309.5C 198.833,309.5 201.167,309.5 203.5,309.5C 203.298,307.05 203.631,304.717 204.5,302.5 Z M 213.5,311.5 C 215.167,311.5 216.833,311.5 218.5,311.5C 218.5,313.833 218.5,316.167 218.5,318.5C 221.167,318.5 223.833,318.5 226.5,318.5C 226.5,323.167 226.5,327.833 226.5,332.5C 219.833,332.5 213.167,332.5 206.5,332.5C 206.5,327.833 206.5,323.167 206.5,318.5C 208.833,318.5 211.167,318.5 213.5,318.5C 213.5,316.167 213.5,313.833 213.5,311.5 Z"/></g>
<g><path style="opacity:0.92" fill="#d80000" d="M 248.5,302.5 C 261.5,302.5 274.5,302.5 287.5,302.5C 287.5,305.167 287.5,307.833 287.5,310.5C 290.167,310.5 292.833,310.5 295.5,310.5C 295.5,312.833 295.5,315.167 295.5,317.5C 297.833,317.5 300.167,317.5 302.5,317.5C 302.5,325.167 302.5,332.833 302.5,340.5C 300.167,340.5 297.833,340.5 295.5,340.5C 295.5,343.167 295.5,345.833 295.5,348.5C 292.833,348.5 290.167,348.5 287.5,348.5C 287.5,350.833 287.5,353.167 287.5,355.5C 274.5,355.5 261.5,355.5 248.5,355.5C 248.5,337.833 248.5,320.167 248.5,302.5 Z M 265.5,311.5 C 269.833,311.5 274.167,311.5 278.5,311.5C 278.5,313.833 278.5,316.167 278.5,318.5C 280.833,318.5 283.167,318.5 285.5,318.5C 285.5,325.5 285.5,332.5 285.5,339.5C 283.167,339.5 280.833,339.5 278.5,339.5C 278.5,341.833 278.5,344.167 278.5,346.5C 274.167,346.5 269.833,346.5 265.5,346.5C 265.5,334.833 265.5,323.167 265.5,311.5 Z"/></g>
<g><path style="opacity:0.947" fill="#d80000" d="M 307.5,302.5 C 325.5,302.5 343.5,302.5 361.5,302.5C 361.5,305.5 361.5,308.5 361.5,311.5C 349.167,311.5 336.833,311.5 324.5,311.5C 324.5,315.833 324.5,320.167 324.5,324.5C 334.172,324.334 343.839,324.5 353.5,325C 354.444,327.719 354.777,330.552 354.5,333.5C 344.5,333.5 334.5,333.5 324.5,333.5C 324.5,337.833 324.5,342.167 324.5,346.5C 336.505,346.333 348.505,346.5 360.5,347C 361.444,349.719 361.777,352.552 361.5,355.5C 343.5,355.5 325.5,355.5 307.5,355.5C 307.5,337.833 307.5,320.167 307.5,302.5 Z"/></g>
<g><path style="opacity:0.917" fill="#d80000" d="M 366.5,302.5 C 382.167,302.5 397.833,302.5 413.5,302.5C 413.5,305.167 413.5,307.833 413.5,310.5C 415.833,310.5 418.167,310.5 420.5,310.5C 420.5,318.167 420.5,325.833 420.5,333.5C 415.833,333.5 411.167,333.5 406.5,333.5C 406.5,335.5 406.5,337.5 406.5,339.5C 408.833,339.5 411.167,339.5 413.5,339.5C 413.5,341.833 413.5,344.167 413.5,346.5C 415.833,346.5 418.167,346.5 420.5,346.5C 420.5,349.5 420.5,352.5 420.5,355.5C 412.5,355.5 404.5,355.5 396.5,355.5C 396.5,353.167 396.5,350.833 396.5,348.5C 393.833,348.5 391.167,348.5 388.5,348.5C 388.5,345.833 388.5,343.167 388.5,340.5C 387.167,340.5 385.833,340.5 384.5,340.5C 384.5,345.5 384.5,350.5 384.5,355.5C 378.5,355.5 372.5,355.5 366.5,355.5C 366.5,337.833 366.5,320.167 366.5,302.5 Z M 384.5,311.5 C 390.833,311.5 397.167,311.5 403.5,311.5C 403.5,315.833 403.5,320.167 403.5,324.5C 401.167,324.5 398.833,324.5 396.5,324.5C 396.5,327.167 396.5,329.833 396.5,332.5C 392.5,332.5 388.5,332.5 384.5,332.5C 384.5,325.5 384.5,318.5 384.5,311.5 Z"/></g>
<g><path style="opacity:0.905" fill="#d70000" d="M 71.5,302.5 C 86.837,302.333 102.17,302.5 117.5,303C 118.435,305.381 118.768,307.881 118.5,310.5C 120.833,310.5 123.167,310.5 125.5,310.5C 125.5,315.833 125.5,321.167 125.5,326.5C 123.167,326.5 120.833,326.5 118.5,326.5C 118.5,328.5 118.5,330.5 118.5,332.5C 120.833,332.5 123.167,332.5 125.5,332.5C 125.5,337.833 125.5,343.167 125.5,348.5C 123.167,348.5 120.833,348.5 118.5,348.5C 118.5,350.833 118.5,353.167 118.5,355.5C 102.833,355.5 87.1667,355.5 71.5,355.5C 71.5,337.833 71.5,320.167 71.5,302.5 Z M 88.5,311.5 C 95.1667,311.5 101.833,311.5 108.5,311.5C 108.5,315.833 108.5,320.167 108.5,324.5C 101.833,324.5 95.1667,324.5 88.5,324.5C 88.5,320.167 88.5,315.833 88.5,311.5 Z M 88.5,333.5 C 95.1667,333.5 101.833,333.5 108.5,333.5C 108.5,337.833 108.5,342.167 108.5,346.5C 101.833,346.5 95.1667,346.5 88.5,346.5C 88.5,342.167 88.5,337.833 88.5,333.5 Z"/></g>
</svg>
